<?xml version="1.0" encoding="iso-8859-1"?>
<!-- Generator: Adobe Illustrator 18.1.1, SVG Export Plug-In . SVG Version: 6.00 Build 0)  -->
<svg version="1.1" id="Capa_1" xmlns="http://www.w3.org/2000/svg" xmlns:xlink="http://www.w3.org/1999/xlink" x="0px" y="0px"
	 viewBox="0 0 612 612" style="enable-background:new 0 0 612 612;" xml:space="preserve">
<g>
	<path d="M567.297,106.951C416.932,18.793,306.283,0,306.283,0S306.166,0.018,306,0.049C305.834,0.018,305.717,0,305.717,0
		S195.062,18.793,44.703,106.951c0,0-19.938,445.063,261.014,505.049c0.098-0.018,0.185-0.049,0.283-0.068
		c0.098,0.018,0.185,0.049,0.283,0.068C587.229,552.014,567.297,106.951,567.297,106.951z M306.302,37.79
		c24.615,5.323,111.049,27.451,223.778,90.686c-0.492,82.194-14.553,393.213-223.778,445.482V37.79L306.302,37.79z"/>
</g>
<g>
</g>
<g>
</g>
<g>
</g>
<g>
</g>
<g>
</g>
<g>
</g>
<g>
</g>
<g>
</g>
<g>
</g>
<g>
</g>
<g>
</g>
<g>
</g>
<g>
</g>
<g>
</g>
<g>
</g>
</svg>
