<svg id="Layer_1" data-name="Layer 1" xmlns="http://www.w3.org/2000/svg" viewBox="0 0 1400.5 794.484">
  <path d="M1400.5,794.484H0C15.346,755.35,43.685,722.152,83.635,712.3c58.44-14.388,120.286,25.171,178.6,10.3,33.128-8.442,59.209-33.045,86.614-53.475,103.391-77.085,245.076-99.868,367.419-59.067,63.95,21.317,122.225,58.594,187.736,74.448,84.71,20.5,173.3,3.5,260.41.7C1249.251,682.474,1370.813,717.044,1400.5,794.484Z" fill="#f3f5fd"></path>
  <g>
    <path d="M1227.045,597.509c-6.752,20.458-30.059,38.638-23.1,53.683,2.649,5.719,5.308,11.7,6.531,17.81a31.1,31.1,0,0,1,.391,11.089c-2.511,15.932-17.42,26.514-31.283,34.755-.855.506-1.72,1.023-2.586,1.54-13.135,7.871-26.894,16.934-31.114,31.463-2.342,8.071-1.309,16.7-2.279,25.048a52.387,52.387,0,0,1-7.628,21.587h-88.533c-7.86-8.663-7.206-23.223-1.224-33.436,6.4-10.931,17.219-18.359,26.979-26.441,8.43-6.984,16.649-15.393,19.867-25.649a31.156,31.156,0,0,0,1.129-4.969c.781-5.55.359-33.9,9.981-51.351,14.877-26.947,39.007-20.311,46.382-35.515,2.828-5.824,5.265-77.391,52.269-64.17A34.954,34.954,0,0,1,1227.045,597.509Z" fill="#dee8f5"></path>
    <path d="M1313.024,709.412a21.516,21.516,0,0,1-4.325,2.3c-12.682,4.758-47.954,4.231-53.114,16.755-2.426,5.887-3.007,12.387-5.085,18.411-4.716,13.664-17.166,23.908-31.094,27.76-5.011,1.382-10.2,2.025-15.161,3.566-9.58,2.986-17.515,8.989-24.489,16.28h-114.34a45.029,45.029,0,0,1,20.638-38.152c12.714-8.019,28.772-9.517,41.254-17.895,8.23-5.528,14.148-13.515,18.844-22.346a163.267,163.267,0,0,0,7.9-17.821c3.493-9.063,7.143-18.791,15.077-24.4,3.778-2.669,8.252-4.168,12.736-5.339,11.458-3,20.268-1.234,28.613.475,10.129,2.068,19.583,4.041,32.276-2.7,22.515-11.965,55.434-71.63,88.332-14.94C1344.276,674.1,1326.076,700.676,1313.024,709.412Z" fill="#8ddbe0"></path>
  </g>
  <g>
    <path d="M177.014,597.509c6.753,20.458,30.06,38.638,23.1,53.683-2.648,5.719-5.307,11.7-6.531,17.81a31.073,31.073,0,0,0-.39,11.089c2.511,15.932,17.42,26.514,31.283,34.755.855.506,1.72,1.023,2.585,1.54,13.136,7.871,26.894,16.934,31.115,31.463,2.342,8.071,1.308,16.7,2.279,25.048a52.387,52.387,0,0,0,7.628,21.587h88.533c7.86-8.663,7.206-23.223,1.223-33.436-6.4-10.931-17.219-18.359-26.978-26.441-8.431-6.984-16.65-15.393-19.868-25.649a31.154,31.154,0,0,1-1.128-4.969c-.781-5.55-.359-33.9-9.981-51.351C285,625.691,260.873,632.327,253.5,617.123c-2.828-5.824-5.265-77.391-52.269-64.17A34.954,34.954,0,0,0,177.014,597.509Z" fill="#dee8f5"></path>
    <path d="M91.035,709.412a21.548,21.548,0,0,0,4.326,2.3c12.682,4.758,47.954,4.231,53.113,16.755,2.427,5.887,3.007,12.387,5.086,18.411,4.716,13.664,17.166,23.908,31.093,27.76,5.012,1.382,10.2,2.025,15.162,3.566,9.58,2.986,17.514,8.989,24.488,16.28h114.34a45.03,45.03,0,0,0-20.637-38.152c-12.714-8.019-28.773-9.517-41.254-17.895-8.23-5.528-14.149-13.515-18.844-22.346a163.083,163.083,0,0,1-7.9-17.821c-3.492-9.063-7.143-18.791-15.077-24.4-3.777-2.669-8.251-4.168-12.735-5.339-11.458-3-20.268-1.234-28.614.475C183.45,671.07,174,673.043,161.3,666.3c-22.516-11.965-55.435-71.63-88.332-14.94C59.783,674.1,77.984,700.676,91.035,709.412Z" fill="#8ddbe0"></path>
  </g>
  <g>
    <path d="M1077.083,162.893a38.343,38.343,0,0,0-23.671,0,26.182,26.182,0,0,0-11.438,7.618c-3.912,4.635-6.8,11.053-6.512,17.2a18.824,18.824,0,0,0,9.81,15.353c4.963,2.544,12.429,3.072,16.774-1,3.313-3.1,3.143-8.425,1.006-12.12-3.415-5.905-10.872-8.306-17.345-7.484a27.834,27.834,0,0,0-18.587,11.22,27.494,27.494,0,0,0-4.406,9.509c-.787,3.177-1.109,6.821.14,9.927a3.007,3.007,0,0,0,3.587,2.037c1.386-.381,2.627-2.117,2.036-3.587a7.269,7.269,0,0,1-.6-2.617,13.292,13.292,0,0,1,.261-3.321,22.734,22.734,0,0,1,2.79-7.145,21.859,21.859,0,0,1,11.726-9.335c4.674-1.563,10.192-1.548,13.943,1.994a7.323,7.323,0,0,1,1.682,2.23c.054.095.223.522.024.019.09.228.169.461.238.7.044.148.084.3.119.448.048.2.118,1.136.074.283.012.233.214,1.608-.006,1.74-.065.039.173-.829.04-.319-.023.089-.025.183-.051.27a6,6,0,0,1-.208.731,3.273,3.273,0,0,1-1.6,1.335c.426-.2-.442.153-.435.151-.181.055-.363.1-.547.144a7.967,7.967,0,0,1-1.633.252,14.8,14.8,0,0,1-2.848-.075,13.428,13.428,0,0,1-2.942-.88,12.863,12.863,0,0,1-7.22-10.89,19.21,19.21,0,0,1,1.728-7.555,24.969,24.969,0,0,1,1.473-2.8,18.62,18.62,0,0,1,1.617-2.295,22.116,22.116,0,0,1,1.948-2.032q.505-.464,1.039-.895c.691-.562-.447.313.27-.206.218-.158.437-.313.659-.464a23.241,23.241,0,0,1,2.4-1.422c.429-.221.864-.428,1.3-.625.094-.042.517-.212.026-.013q.423-.171.851-.329a31.142,31.142,0,0,1,5.87-1.471c.837-.133-.608.055.233-.029.252-.025.5-.056.755-.08.5-.047,1-.084,1.5-.11q1.478-.078,2.957-.038,1.427.036,2.847.176c.207.021,1.617.2.815.084.439.063.876.129,1.312.205a34.638,34.638,0,0,1,4.646,1.128c3.584,1.145,5.118-4.484,1.551-5.624Z" fill="#fdb754"></path>
    <path d="M520.156,55.921c7.44-2.674,15.2,2.733,18.7,9.354,3.445,6.526,2.642,15.848-4.1,20.023-2.865,1.774-6.877,2.369-9.376.092-2.606-2.375-2.447-5.334.129-7.709a11.814,11.814,0,0,1,1.961-1.424c.408-.246.825-.479,1.251-.693.156-.078.314-.153.472-.227.432-.2-.629.227.155-.065a17.053,17.053,0,0,1,1.928-.6q.465-.112.938-.2c.182-.034.364-.064.546-.093-.6.095.29-.027.335-.031a20.562,20.562,0,0,1,4.45.074c.494.062-.394-.064.1.018.194.033.389.065.582.1q.51.094,1.016.213a23.214,23.214,0,0,1,2.434.713c.227.08.913.343.909.341-.243-.1.208.094.2.091.182.083.364.168.544.256a21.669,21.669,0,0,1,2.226,1.247,15.259,15.259,0,0,1,3.3,2.814,14.417,14.417,0,0,1,2.322,3.54,5.352,5.352,0,0,1,.3.735c.178.492.335.993.479,1.5a23.2,23.2,0,0,1,.715,3.316,22.2,22.2,0,0,1-9.9,21.316,10.3,10.3,0,0,1-9.38.792,9.145,9.145,0,0,1-1.206-.7c-.46-.308.216.216-.049-.031-.069-.064-.14-.126-.206-.194-.087-.091-.165-.186-.248-.278.76.84.088.156.135.135a3.121,3.121,0,0,1-.178-.326c.163.253.127.506.051.084-.019-.1-.183-.949-.13-.471.049.449.011-.284.008-.429s.02-.284.024-.427c0,.111-.147.633-.012.116.09-.343.155-.686.265-1.025.056-.171.354-.852.123-.36q.23-.49.5-.958c.193-.332.4-.653.626-.966.023-.033.325-.424.1-.135.131-.165.269-.325.408-.482a17.493,17.493,0,0,1,4.182-3.436c.481-.29.97-.569,1.471-.822.169-.086.954-.42.314-.168a16.934,16.934,0,0,1,1.88-.618,12.994,12.994,0,0,1,3.98-.543,21.69,21.69,0,0,1,2.28.085,3.515,3.515,0,0,1,.76.1c.461.085.92.18,1.375.3a11.331,11.331,0,0,1,4.2,1.924,13.459,13.459,0,0,1,4.626,7.339,20.066,20.066,0,0,1,.209,9.207,19.091,19.091,0,0,1-3.845,8.223,15.3,15.3,0,0,1-3.406,3.059c-3.132,2.043-.212,7.1,2.944,5.037,7.226-4.715,11.1-13.558,10.53-22.081a22.386,22.386,0,0,0-4.187-12.009,17.4,17.4,0,0,0-11.2-6.673c-8.41-1.379-17.4,1.972-22.057,9.354-1.843,2.92-2.757,6.913-.874,10.046,2.39,3.975,8.162,5.1,12.413,4.576,5.229-.641,9.534-3.8,12.81-7.811a28.294,28.294,0,0,0,6.554-15.127,26.307,26.307,0,0,0-2.84-15.069,21.6,21.6,0,0,0-8.648-8.331c-6.912-3.715-15.854-4.43-22.711-.216-4.486,2.757-8,7.619-6.317,13.09a12.017,12.017,0,0,0,11.716,8.31c11.1-.188,18.093-11.8,16.8-22-1.345-10.58-10-20.058-20.776-21.256a16.142,16.142,0,0,0-7.182.833,2.993,2.993,0,0,0-2.037,3.588,2.943,2.943,0,0,0,3.588,2.037Z" fill="#fdb754"></path>
    <path d="M844.217,133.915a38.369,38.369,0,0,0,22.7-10.255,25.888,25.888,0,0,0,7.169-12.788c1.38-6.012.831-13.147-2.612-18.38a18.806,18.806,0,0,0-14.231-8.1c-5.406-.229-12.312,2.167-14.631,7.493-1.854,4.26.441,9.315,4.114,11.793,5.827,3.931,13.43,3.024,19.2-.518A27.728,27.728,0,0,0,878.11,85.186c1.259-6.478.5-14.515-4.4-19.366-1.12-1.11-3.2-.654-4.1.482a2.989,2.989,0,0,0,.482,4.1c-.437-.433.207.261.235.3.124.157.242.319.355.483a5.1,5.1,0,0,1,.555.951,15.511,15.511,0,0,1,1.081,3.2,22.661,22.661,0,0,1,.305,7.124,21.942,21.942,0,0,1-6.921,13.515c-3.626,3.3-8.58,5.534-13.443,3.994a6.971,6.971,0,0,1-2.663-1.421c-.148-.124-.294-.253-.434-.387.45.429-.144-.172-.194-.234q-.159-.2-.306-.4c-.1-.14-.606-1.04-.231-.3-.253-.5-.363-1.141-.638-1.613.016.027.083.683.028.085a3.457,3.457,0,0,1-.034-.913c.141-.965-.051.095.115-.422.023-.07.319-.685.143-.374a6.568,6.568,0,0,1,.475-.648c.067-.091.525-.578.179-.242a10.043,10.043,0,0,1,2.391-1.622,11,11,0,0,1,5.71-1.3c-.412-.015.226.027.319.038.253.029.506.051.758.088a13.343,13.343,0,0,1,1.509.3c-.344-.091.15.047.18.056.3.1.6.2.888.321a17.357,17.357,0,0,1,1.6.743,13.7,13.7,0,0,1,4.715,4.226c2.623,4,2.564,9.611,1.546,14.044-.123.537-.2.8-.283,1.075q-.23.72-.506,1.422a22.77,22.77,0,0,1-1.257,2.651c-.455.822.3-.45-.2.341q-.153.242-.31.48-.393.591-.821,1.158a24.638,24.638,0,0,1-2.013,2.339c-.13.133-.261.265-.394.394.436-.426-.26.233-.349.312q-.567.507-1.161.983a30.359,30.359,0,0,1-2.677,1.915c-.42.269-.849.52-1.277.775-.125.075-.65.367-.138.086-.235.129-.473.253-.712.376q-1.41.722-2.877,1.322a42.478,42.478,0,0,1-5.308,1.75c-.158.042-.689.159-.055.016-.222.05-.444.1-.667.148-.43.092-.863.175-1.3.251q-1.2.21-2.415.329c-3.744.371-3.127,6.172.609,5.8Z" fill="#fdb754"></path>
    <rect x="600.102" y="0.905" width="11" height="26.052" transform="translate(88.673 329.736) rotate(-32.74)" fill="#fdb754"></rect>
    <rect x="768.212" y="201.161" width="28.817" height="11" transform="translate(178.163 745.024) rotate(-56.482)" fill="#fdb754"></rect>
    <rect x="255.737" y="78.583" width="25.499" height="11" transform="translate(51.259 262.877) rotate(-56.846)" fill="#fdb754"></rect>
    <rect x="1137.905" y="290.777" width="11" height="28.482" transform="translate(-39.778 282.921) rotate(-13.867)" fill="#fdb754"></rect>
    <rect x="1165.71" y="70.797" width="10.999" height="29.571" transform="translate(158.321 679.817) rotate(-34.578)" fill="#fdb754"></rect>
    <rect x="340.362" y="190.07" width="31.871" height="11" transform="translate(-23.015 341.574) rotate(-49.815)" fill="#fdb754"></rect>
    <rect x="510.975" y="364.499" width="28.482" height="11" transform="translate(-106.302 488.048) rotate(-45.752)" fill="#fdb754"></rect>
    <rect x="956.353" y="330.84" width="11" height="26.052" transform="translate(-33.168 574.819) rotate(-32.74)" fill="#fdb754"></rect>
  </g>
  <g>
    <path d="M1212.184,179.977c2.274-14.695-2.227-24.653-9.392-30.8-7.069-6.063-30.85-13.881-42.688,2.721-7.724,10.833-5.944,15.361-10.357,33.86s-11.266,19.518-21.2,41.279c-7.8,17.069,20.113,30.751,45.584,33.589s42.349-.458,46.145-16.37C1225.719,221.422,1207.728,208.774,1212.184,179.977Z" fill="#0f1011"></path>
    <path d="M1191.213,218.488s-7.021-5.226-2.118-25.776l-15.342-5.353s-1.091,18.932-9.989,23.63Z" fill="#EDA59F"></path>
    <g opacity="0.15">
      <path d="M1167.6,207.584l14.66-8.021-10.287-1.689A28.747,28.747,0,0,1,1167.6,207.584Z"></path>
    </g>
    <path d="M1199.294,186.017c-2.063,6.147-6.427,11.6-12.31,12.781a40.508,40.508,0,0,1-19.53-.352c-17.07-4.072-7.615-42.855,1.765-49.229s32.725,2.159,33.694,15.379C1203.414,171.433,1201.257,180.167,1199.294,186.017Z" fill="#EDA59F"></path>
    <g>
      <circle cx="1175.532" cy="175.924" r="1.449" fill="#0f1011"></circle>
      <circle cx="1164.375" cy="173.262" r="1.449" fill="#0f1011"></circle>
      <path d="M1166.268,170.372a.62.62,0,0,1-.1-.007l-3.8-.535a.681.681,0,1,1,.189-1.348l3.8.535a.681.681,0,0,1-.094,1.355Z" fill="#0f1011"></path>
      <path d="M1179.124,173.811a.665.665,0,0,1-.257-.051l-3.6-1.474a.681.681,0,1,1,.516-1.26l3.6,1.475a.68.68,0,0,1-.258,1.31Z" fill="#0f1011"></path>
      <path d="M1173.137,187.1s-5.372-.254-8.879-2.118c0,0-.505,3.487,3.626,4.472S1173.137,187.1,1173.137,187.1Z" fill="#fff"></path>
    </g>
    <path d="M1190.174,167.871a125.374,125.374,0,0,0-1.969,44.629s15.259-18.917,19.8-35.93c4.252-15.948-6.229-27.359-14.026-30.4-29.632-11.574-34.986,10.485-34.986,10.485.882,7.916,33.674,17.476,33.674,17.476" fill="#0f1011"></path>
    <path d="M1181.816,183.207a6.143,6.143,0,1,0,11.95,2.85,6.041,6.041,0,0,0-4.55-7.4C1184.91,177.851,1182.6,179.907,1181.816,183.207Z" fill="#EDA59F"></path>
    <g opacity="0.15">
      <path d="M1168.03,182.9a.5.5,0,0,1-.218-.05l-3.285-1.588a.5.5,0,0,1-.2-.721l3.042-4.7a.5.5,0,0,1,.84.543l-2.734,4.225,2.775,1.342a.5.5,0,0,1-.218.95Z"></path>
    </g>
  </g>
  <path d="M1312.786,442.232l-84.9,15.473a13.471,13.471,0,0,1-13.381-5.423l-.638-.9-37.54-52.688,33.5-19.339,23.393,51.268,76.465-9.158Z" fill="#EDA59F"></path>
  <path d="M1328.523,465.419a4.109,4.109,0,0,1-3.323,5.018h0a4.109,4.109,0,0,1-4.062-1.737l-13.8-21.773a3.458,3.458,0,0,1-.377-2.865,19.117,19.117,0,0,0,.557-11.949,17.024,17.024,0,0,0-5.24-7.793,1.546,1.546,0,0,1,.562-2.741l11.605-2.861a2.677,2.677,0,0,1,3.243,1.97Z" fill="#c1d8ed"></path>
  <polygon points="1128.404 466.377 1159.171 585.015 1139.021 590.932 1100.77 474.607 1128.404 466.377" fill="#EDA59F"></polygon>
  <path d="M1117.21,608.2a4.106,4.106,0,0,1-5.3-2.859h0a4.107,4.107,0,0,1,1.365-4.2l20.448-15.7a3.464,3.464,0,0,1,2.82-.633,19.1,19.1,0,0,0,11.95-.516,17.027,17.027,0,0,0,7.292-5.917,1.546,1.546,0,0,1,2.78.313l3.89,11.3a2.677,2.677,0,0,1-1.671,3.407Z" fill="#c1d8ed"></path>
  <path d="M1120.217,313.631s-26.418,85.106-33.64,109.4c-16.338,54.954,14.193,95.985,14.193,95.985s41.3,5.891,61.837-21.472c37.981-50.609,86.589-15.386,88.676-71.479-27.652-5.217-58.664-105.465-58.664-105.465Z" fill="#55affc"></path>
  <g>
    <path d="M209.1,226.724s7.521-4.475,4.761-25.421l15.811-3.745s-.864,18.944,7.5,24.533Z" fill="#EDA59F"></path>
    <g opacity="0.15">
      <path d="M233.714,218.31l-13.756-9.488,10.406-.621A28.729,28.729,0,0,0,233.714,218.31Z"></path>
    </g>
    <path d="M204.408,193.594c1.419,6.326,5.2,12.2,10.928,13.981,6.8,2.117,11.759,2.039,19.463,1.66,10.512-.518,9.625-11.464,9.376-22.527-.25-11.107-1.718-22.961-6.063-26.622-8.673-7.307-32.773-1.222-35.1,11.828C201.811,178.663,203.057,187.572,204.408,193.594Z" fill="#EDA59F"></path>
    <path d="M248.8,165.987s4.258-1.173,2.867-5.408c-.921-2.809-4.538-2-4.538-2s3.423-.8,3.274-3.817c-.093-1.9-1.711-5.047-6.025-2.99-5.061,2.413-10.968,2.426-15.486,1.893a51.811,51.811,0,0,0-7.752-.708l-.013,0v0a29.655,29.655,0,0,0-8.746,1.611c-7.892,2.791-19.661,10.57-16.282,26.726,3.771,18.031,12.641,24.561,16.5,26.6a1.711,1.711,0,0,0,2.467-1.08c.9-3.458,2.31-12.118.925-29.763,24.563-2.42,31.629-3.135,31.629-3.135s5.807-.069,5.6-4.3S248.8,165.987,248.8,165.987Z" fill="#0f1011"></path>
    <g>
      <circle cx="229.083" cy="186.001" r="1.449" fill="#0f1011"></circle>
      <circle cx="240.454" cy="184.503" r="1.449" fill="#0f1011"></circle>
      <path d="M238.94,181.436a.681.681,0,0,1-.025-1.361l3.836-.141a.681.681,0,0,1,.05,1.361l-3.836.141Z" fill="#0f1011"></path>
      <path d="M225.8,183.533a.681.681,0,0,1-.191-1.334l3.736-1.1a.681.681,0,0,1,.382,1.307l-3.735,1.095A.671.671,0,0,1,225.8,183.533Z" fill="#0f1011"></path>
    </g>
    <path d="M221.728,189.913a6.143,6.143,0,1,1-12.18,1.6,6.043,6.043,0,0,1,5.288-6.893C219.2,184.267,221.285,186.55,221.728,189.913Z" fill="#EDA59F"></path>
    <g opacity="0.15">
      <path d="M235.878,193.712a.5.5,0,0,1-.17-.969l2.9-1.049-2.284-4.484a.5.5,0,1,1,.89-.454l2.542,4.989a.5.5,0,0,1-.275.7l-3.431,1.241A.484.484,0,0,1,235.878,193.712Z"></path>
    </g>
    <path d="M230.313,197.366s5.37.3,9.05-1.193c0,0,.144,3.52-4.066,4.075S230.313,197.366,230.313,197.366Z" fill="#fff"></path>
  </g>
  <g>
    <path d="M270.929,131.243l10.626-5.228s-.175-15.32-13.746-22.027c-4.5-2.223-7.091,2.822-6.158,4.286,3.084,4.839,6.6,9.221,7.048,14.131-1.79-1.356-4.347-3.063-4.968-2.28C262.1,122.185,270.929,131.243,270.929,131.243Z" fill="#EDA59F"></path>
    <path d="M94.685,445.193c-.611-.152-2.471-.617-20-7.28l7.462-19.629c7.429,2.823,16.37,6.149,17.86,6.6-.095-.029-.175-.048-.237-.064Z" fill="#EDA59F"></path>
    <path d="M59.629,460.854a4.107,4.107,0,0,0,3.093,5.162h0a4.107,4.107,0,0,0,4.137-1.551l14.769-21.126a3.467,3.467,0,0,0,.507-2.846,19.1,19.1,0,0,1-.017-11.961,17.027,17.027,0,0,1,5.587-7.548,1.547,1.547,0,0,0-.437-2.764L75.8,414.837a2.678,2.678,0,0,0-3.329,1.822Z" fill="#c1d8ed"></path>
    <path d="M180.55,511.178l-3.576-20.693c7.833-1.354,17.222-3.045,18.733-3.417-.1.023-.175.047-.236.065l5.993,20.127C200.861,507.44,199.025,507.987,180.55,511.178Z" fill="#EDA59F"></path>
    <path d="M179.272,538.59a4.108,4.108,0,0,0,5.291,2.868h0a4.107,4.107,0,0,0,2.77-3.442l1.952-25.7a3.461,3.461,0,0,0-1.013-2.707,19.108,19.108,0,0,1-6.1-10.286,17.023,17.023,0,0,1,.964-9.34,1.547,1.547,0,0,0-1.784-2.157l-11.588,2.927a2.678,2.678,0,0,0-1.938,3.263Z" fill="#c1d8ed"></path>
    <path d="M294.211,473.127l-.1-.846h0c-2.629-21.852-17.271-128.378-19-139.638H199.4s-29.46,96.285-30.6,98.953L96.421,416.164l-9.084,35.868,89.11,26.207a21.034,21.034,0,0,0,24.731-10.758s32.351-82.641,33-84.163l19.972,78.938-67.562,19.229,10.129,35.587,84.208-23.967A18.487,18.487,0,0,0,294.211,473.127Z" fill="#55affc"></path>
    <path d="M130.84,149.405l-11.328,3.453s-9.575-13.393-4.262-27.568c1.761-4.7,7.1-2.791,7.424-1.085,1.059,5.639.715,13.34,3.748,17.227.379-2.214,1.076-5.208,2.065-5.062C131.087,136.756,130.84,149.405,130.84,149.405Z" fill="#EDA59F"></path>
  </g>
  <path d="M1129.7,109.457l-11.107-4.109s-1.4-15.256,11.41-23.322c4.245-2.674,7.343,2.078,6.566,3.631-2.571,5.129-5.62,9.85-5.559,14.78,1.642-1.533,4.009-3.494,4.708-2.779C1137.551,99.539,1129.7,109.457,1129.7,109.457Z" fill="#EDA59F"></path>
  <path d="M1264.466,139.648l11.821.729s6.2-15.25-2.257-27.805c-2.8-4.16-7.557-1.065-7.473.669.279,5.731,2.4,13.141.355,17.627-.882-2.066-2.256-4.816-3.184-4.444C1261.288,127.4,1264.466,139.648,1264.466,139.648Z" fill="#EDA59F"></path>
  <path d="M1283.234,137.258l-12.27,64.38a10.9,10.9,0,0,1-5.27,7.409l-46.57,26.831c.6,15.979-15.27,34.209-18.17,50.86-3.6,20.7,4.15,31.6,1.62,42.1-3.99,16.511-84.42-1.54-86.9-11.75-2.56-10.509,7.13-15.04,12.31-47.089,2.47-15.26,1.12-34.33,5.13-47.5l-37.36-47.5a10.919,10.919,0,0,1-1.82-10.04l20.79-65.4,20.78,6.6-19.04,59.9,32.34,41.12a30.506,30.506,0,0,1,8.65.02c.62.08,1.62.23,2.91.43-.68,5.47,32.87,11.29,34.55,5.88a39.194,39.194,0,0,1,12.19,4.13l43.38-24.99,11.33-59.47Z" fill="#2f3235"></path>
  <g>
    <path d="M787.861,701.776c-75.1-33.71-82.207-169.827-78.689-182.759,1.3-4.783-.988-6.023-4.384-5.692-4.533-.527-12.943,3.732-15.682,5.2-2.739-1.47-11.149-5.729-15.682-5.2-3.4-.331-5.684.909-4.384,5.692,3.518,12.932-3.593,149.049-78.689,182.759-15.779,7.083-10.344,15.517-10.344,15.517h218.2S803.64,708.859,787.861,701.776Z" fill="#fdb754"></path>
    <g opacity="0.09">
      <path d="M798.2,717.3h-14s5.44-8.44-10.34-15.52c-75.1-33.71-72.21-169.829-68.69-182.759,1.02-3.76-.18-5.33-2.4-5.67a9.061,9.061,0,0,1,2.01-.02c3.4-.33,5.69.91,4.39,5.69-3.52,12.93,3.59,149.049,78.69,182.759C803.644,708.857,798.2,717.3,798.2,717.3Z"></path>
    </g>
    <path d="M989.211,351.049c-21.869,34.01-48.329,43.51-77.859,51.89-29.03,8.24-54.1,15.35-69.97,42.06a71.76,71.76,0,0,0-8.52,20.47v.02a51.509,51.509,0,0,0-.957,5.232,14.373,14.373,0,0,1-2.378,6.424,11.524,11.524,0,0,1-10.026,5.014c-5.9,0-9.349-2.387-11.352-5.355a13.363,13.363,0,0,1-2.036-9.256q.139-1.036.309-2.079a95.708,95.708,0,0,1,12.61-33.75c21.15-35.61,55.19-45.27,85.219-53.8,27.541-7.81,46.541-15.19,63.091-40.93,8.23-12.82,17-42.25,6.51-65.64-8.17-18.2-21.54-28.87-39.73-31.73-49.661-7.8-72.99,40.58-73.96,42.64a13,13,0,0,1-23.59-10.92,117.848,117.848,0,0,1,24.1-32.54c21.87-20.8,48.67-29.39,77.479-24.86,26.661,4.18,47.761,20.79,59.421,46.77C1010.861,290.329,1003.282,329.169,989.211,351.049Z" fill="#fdb754"></path>
    <path d="M389.047,351.049c21.87,34.01,50.33,43.51,79.86,51.89,29.03,8.24,54.1,15.35,69.97,42.06a71.76,71.76,0,0,1,8.52,20.47v.02a51.221,51.221,0,0,1,.956,5.232,14.386,14.386,0,0,0,2.379,6.424,11.522,11.522,0,0,0,10.025,5.014c5.9,0,9.349-2.387,11.353-5.355a13.362,13.362,0,0,0,2.035-9.256q-.139-1.036-.308-2.079a95.708,95.708,0,0,0-12.61-33.75c-21.15-35.61-55.19-45.27-85.22-53.8-27.54-7.81-48.54-15.19-65.09-40.93-8.23-12.82-15-42.25-4.51-65.64,8.17-18.2,21.54-28.87,39.73-31.73,49.66-7.8,72.99,40.58,73.96,42.64a13,13,0,0,0,23.59-10.92,117.848,117.848,0,0,0-24.1-32.54c-21.87-20.8-48.67-29.39-77.48-24.86-26.66,4.18-47.76,20.79-59.42,46.77C369.4,290.329,374.977,329.169,389.047,351.049Z" fill="#fdb754"></path>
    <path d="M855.479,198.263a18.4,18.4,0,0,0-18.287-16.314H542.8a18.4,18.4,0,0,0-18.287,16.314c-4.736,41.857-13.2,154.1,22.791,216.03,44.828,77.138,112.862,104.724,127.517,104.724h30.346c14.654,0,82.689-27.586,127.516-104.724C868.677,352.365,860.216,240.12,855.479,198.263Z" fill="#fdb754"></path>
    <g opacity="0.09">
      <path d="M855.479,198.263a18.4,18.4,0,0,0-18.287-16.314h-58.97s10.027,153.931-8.741,231.068-64.834,106-64.309,106c14.654,0,82.689-27.586,127.516-104.724C868.677,352.365,860.216,240.12,855.479,198.263Z"></path>
    </g>
    <rect x="580.102" y="717.293" width="218.104" height="52.12" fill="#0f1011"></rect>
    <rect x="566.814" y="769.413" width="244.68" height="12.535" fill="#0f1011"></rect>
    <rect x="554.24" y="781.949" width="269.828" height="12.535" fill="#0f1011"></rect>
  </g>
  <polygon points="735.559 378.847 689.826 354.796 644.057 378.847 652.815 327.929 615.802 291.856 666.94 284.442 689.826 238.104 712.656 284.442 763.812 291.856 726.801 327.929 735.559 378.847" fill="#fff"></polygon>
  <path d="M309.067,176.961l-24.222-57.019-20.068,8.525,21.569,50.775-33.5,38.848a30.746,30.746,0,0,0-8.65-.372c-.62.05-1.62.16-2.92.3-.721.081-1.555.178-2.448.282l-1.233-6.539L204.674,216.2l.909,6.276c-7.053,1.053-12.907,3.581-16.961,6.966L141.684,204.09l-7.633-59.285-21.626,2.785,8.347,64.829a10.906,10.906,0,0,0,5.633,8.2l55.214,29.817c2.311,14.341,13.684,30.363,15.525,44.781,2.66,20.84-5.57,31.38-3.52,41.98,3.24,16.669,84.4,2.28,87.34-7.8,3.03-10.4-6.44-15.351-10.17-47.61-1.777-15.35.438-34.344-2.973-47.679l39.467-45.765A10.9,10.9,0,0,0,309.067,176.961Z" fill="#2f3235"></path>
  <path d="M1194.914,213.508c-1.68,5.41-12.71,13.15-24.69,10.24-8.98-2.17-10.54-10.65-9.86-16.12,6.97,1.1,22.58,3.79,34.52,5.87A.037.037,0,0,1,1194.914,213.508Z" fill="#EDA59F"></path>
</svg>