<?xml version="1.0" encoding="utf-8"?>
<!-- Generator: Adobe Illustrator 16.0.0, SVG Export Plug-In . SVG Version: 6.00 Build 0)  -->
<!DOCTYPE svg PUBLIC "-//W3C//DTD SVG 1.0//EN" "http://www.w3.org/TR/2001/REC-SVG-20010904/DTD/svg10.dtd">
<svg version="1.0" id="Layer_1" xmlns="http://www.w3.org/2000/svg" xmlns:xlink="http://www.w3.org/1999/xlink" x="0px" y="0px"
	 width="100px" height="100px" viewBox="0 0 100 100" enable-background="new 0 0 100 100" xml:space="preserve">
<path fill="#7CB342" d="M76.666,36.667H56.667l-6.666,6.667H26.667c-5.459,0-10.566,1.491-14.979,4.049l3.326,5.767
	C18.448,51.158,22.422,50,26.667,50c11.733,0,21.47,8.709,23.093,19.999H43c0.218,1.077,0.334,2.191,0.334,3.333
	c0,1.143-0.116,2.256-0.334,3.333h23.8c0.371-2.596,1.587-4.916,3.375-6.666H56.472C55.576,61.945,51.479,54.845,45.486,50h7.274
	l6.667-6.667h17.238c3.672,0,6.667,2.988,6.667,6.667v17.803C87.272,69.676,90,73.679,90,78.332V50
	C90,42.637,84.03,36.667,76.666,36.667z"/>
<path fill="#F1F7E9" d="M78.333,66.665c1.793,0,3.483,0.416,5,1.138V50c0-3.678-2.995-6.667-6.667-6.667H59.428L52.761,50h-7.274
	c5.992,4.845,10.09,11.945,10.985,19.999h13.703C72.277,67.939,75.154,66.665,78.333,66.665z"/>
<rect x="76.666" y="53.333" fill="#FFC00E" width="13.334" height="6.667"/>
<path fill="#BDBCBC" d="M51.986,21.348c-8.457-8.463-22.175-8.463-30.639,0l-3.538-3.535c10.416-10.416,27.302-10.416,37.712,0
	L51.986,21.348z"/>
<path fill="#BDBCBC" d="M44.916,28.418c-4.557-4.557-11.941-4.557-16.499,0l-3.535-3.535c6.507-6.51,17.059-6.51,23.569,0
	L44.916,28.418z"/>
<path fill="#BDBCBC" d="M31.953,31.953c2.606-2.604,6.825-2.604,9.429,0l-4.714,4.713L31.953,31.953z"/>
<path fill="#568B3F" d="M62.759,76.665h12.45v-6.666H65.09C63.845,71.971,63.017,74.232,62.759,76.665z"/>
<circle fill="#424243" cx="78.333" cy="78.332" r="11.667"/>
<path fill="#568B3F" d="M83.333,63.498v4.305C87.272,69.676,90,73.679,90,78.332v-10.42C88.213,65.913,85.927,64.374,83.333,63.498z
	"/>
<circle fill="#ECEFF0" cx="78.333" cy="78.332" r="5"/>
<circle fill="#424243" cx="26.667" cy="73.332" r="16.667"/>
<circle fill="#ECEFF0" cx="26.667" cy="73.332" r="10"/>
<circle fill="#424243" cx="26.666" cy="73.332" r="3.333"/>
<rect x="66.667" y="20" fill="#9D9D9D" width="6.667" height="16.666"/>
<rect x="66.667" y="32.667" fill="#616262" width="6.667" height="4"/>
<path fill="#568B3F" d="M47.062,69.999h-4.063c0.219,1.077,0.335,2.19,0.335,3.333s-0.116,2.256-0.335,3.333h4.063
	c0.176-1.086,0.272-2.198,0.272-3.333S47.238,71.085,47.062,69.999z"/>
</svg>
